<svg width="67" height="77" viewBox="0 0 67 77" fill="none" xmlns="http://www.w3.org/2000/svg">
<path d="M45.1522 30.1304C45.9562 30.1304 46.6088 29.3805 46.6088 28.4565V8.36951C46.6086 3.75626 43.3432 0 39.3261 0H7.28256C3.26557 0 0 3.75626 0 8.36951V68.6303C0 73.2436 3.26557 76.9998 7.28256 76.9998H39.3261C43.3432 76.9998 46.6086 73.2436 46.6086 68.6303V48.5434C46.6086 47.6194 45.956 46.8694 45.152 46.8694C44.348 46.8694 43.6956 47.6194 43.6956 48.5434V68.6303C43.6956 71.399 41.7352 73.6521 39.3261 73.6521H7.28256C4.87343 73.6521 2.913 71.399 2.913 68.6303V8.36951C2.913 5.60081 4.87343 3.34777 7.28256 3.34777H39.3261C41.7352 3.34777 43.6956 5.60081 43.6956 8.36951V28.4565C43.6956 29.3805 44.3482 30.1304 45.1522 30.1304Z" fill="white"/>
<path d="M65.5434 36.8261H18.9348C18.1308 36.8261 17.4783 37.5761 17.4783 38.5001C17.4783 39.4241 18.1308 40.1739 18.9348 40.1739H65.5434C66.3474 40.1739 67 39.4239 67 38.4999C67 37.5759 66.3474 36.8261 65.5434 36.8261Z" fill="white"/>
<path d="M66.5718 37.3215L57.8327 27.2781C57.2646 26.6252 56.3411 26.6252 55.7731 27.2781C55.2051 27.9309 55.2051 28.9922 55.7731 29.645L63.481 38.5034L55.7731 47.3617C55.2051 48.0145 55.2051 49.0759 55.7731 49.7287C56.0586 50.0534 56.4314 50.2175 56.8043 50.2175C57.1772 50.2175 57.55 50.0535 57.8327 49.7321L66.5718 39.6887C67.1398 39.0357 67.1398 37.9744 66.5718 37.3215Z" fill="white"/>
</svg>
