<svg id="SvgjsSvg1001" width="288" height="288" xmlns="http://www.w3.org/2000/svg" version="1.1" xmlns:xlink="http://www.w3.org/1999/xlink" xmlns:svgjs="http://svgjs.com/svgjs"><defs id="SvgjsDefs1002"></defs><g id="SvgjsG1008" transform="matrix(0.9167,0,0,0.9167,11.995200000000011,11.99417044372558)"><svg xmlns="http://www.w3.org/2000/svg" width="288" height="288" viewBox="0 0 512 512"><path d="m368 511.957031h-309.332031c-32.363281 0-58.667969-26.304687-58.667969-58.667969v-309.332031c0-32.363281 26.304688-58.667969 58.667969-58.667969h181.332031c8.832031 0 16 7.167969 16 16 0 8.832032-7.167969 16-16 16h-181.332031c-14.699219 0-26.667969 11.96875-26.667969 26.667969v309.332031c0 14.699219 11.96875 26.667969 26.667969 26.667969h309.332031c14.699219 0 26.667969-11.96875 26.667969-26.667969v-181.332031c0-8.832031 7.167969-16 16-16s16 7.148438 16 16v181.332031c0 32.363282-26.304688 58.667969-58.667969 58.667969zm0 0" fill="#ffffff" class="color000 svgShape"></path><path d="m187.136719 340.820312c-4.203125 0-8.300781-1.664062-11.308594-4.691406-3.796875-3.777344-5.417969-9.21875-4.371094-14.445312l15.082031-75.433594c.617188-3.113281 2.152344-5.953125 4.371094-8.171875l220.953125-220.925781c22.867188-22.871094 60.074219-22.871094 82.964844 0 11.070313 11.070312 17.171875 25.792968 17.171875 41.472656s-6.101562 30.398438-17.195312 41.472656l-220.925782 220.949219c-2.21875 2.238281-5.078125 3.753906-8.171875 4.371094l-75.414062 15.082031c-1.046875.214844-2.113281.320312-3.15625.320312zm75.433593-31.082031h.214844zm-45.609374-52.457031-9.410157 47.144531 47.125-9.429687 217.515625-217.511719c5.035156-5.058594 7.808594-11.734375 7.808594-18.859375s-2.773438-13.804688-7.808594-18.859375c-10.367187-10.390625-27.285156-10.390625-37.714844 0zm0 0" fill="#ffffff" class="color000 svgShape"></path><path d="m453.332031 134.976562c-4.09375 0-8.191406-1.558593-11.304687-4.695312l-60.332032-60.351562c-6.25-6.25-6.25-16.382813 0-22.632813s16.382813-6.25 22.636719 0l60.328125 60.351563c6.25 6.25 6.25 16.382812 0 22.632812-3.136718 3.117188-7.230468 4.695312-11.328125 4.695312zm0 0" fill="#ffffff" class="color000 svgShape"></path></svg></g></svg>